<?xml version="1.0" standalone="no"?>
<!DOCTYPE svg PUBLIC "-//W3C//DTD SVG 20010904//EN"
 "http://www.w3.org/TR/2001/REC-SVG-20010904/DTD/svg10.dtd">
<svg version="1.0" xmlns="http://www.w3.org/2000/svg"
 width="600.000000pt" height="480.000000pt" viewBox="0 0 600.000000 480.000000"
 preserveAspectRatio="xMidYMid meet">

<g transform="translate(0.000000,480.000000) scale(0.100000,-0.100000)"
fill="#000000" stroke="none">
<path d="M4560 2528 c-305 -99 -557 -182 -559 -184 -2 -2 13 -39 35 -82 56
-112 163 -217 275 -270 46 -22 106 -45 133 -51 69 -17 220 -14 290 4 200 53
369 222 420 421 30 117 15 345 -22 343 -9 0 -267 -82 -572 -181z m510 -16 c0
-108 -44 -231 -111 -307 -33 -37 -66 -46 -75 -20 -4 8 12 45 34 83 48 80 70
144 80 232 7 65 13 72 65 79 4 1 7 -30 7 -67z"/>
<path d="M4086 2665 c-40 -21 -55 -44 -56 -81 0 -42 33 -81 80 -94 46 -12 80
-6 136 26 118 67 84 152 -65 161 -48 3 -74 0 -95 -12z m160 -60 c9 -23 -15
-45 -48 -45 -30 0 -44 19 -34 45 7 20 75 20 82 0z"/>
</g>
</svg>
